<svg xmlns="http://www.w3.org/2000/svg" width="24px" height="24px" viewBox="0 0 24 24" fill="hsl(0, 0%, 20%)"><circle cx="8.48" cy="15.26" r="1.94"/><path d="M12 1C5.92 1 1 5.92 1 12s4.92 11 11 11 11-4.92 11-11S18.08 1 12 1zM9.38 5.51c.15-.39.57-.6.97-.46l1.62.54 1.61-.54c.39-.13.82.08.97.46l1.77 4.72h-8.7l1.76-4.72zm6.07 12.46c-1.42 0-2.56-1.09-2.69-2.48-.75-.48-1.36-.18-1.6-.02a2.696 2.696 0 0 1-2.69 2.49c-1.49 0-2.71-1.22-2.71-2.71s1.22-2.71 2.71-2.71c1.28 0 2.35.89 2.63 2.09.45-.19 1.05-.27 1.7.01a2.71 2.71 0 0 1 2.63-2.1c1.49 0 2.71 1.22 2.71 2.71a2.679 2.679 0 0 1-2.69 2.72zm3.49-6.19H5V11h13.94v.78z"/><circle cx="15.45" cy="15.26" r="1.94"/></svg>
